<?xml version="1.0" standalone="no"?>
<!DOCTYPE svg PUBLIC "-//W3C//DTD SVG 20010904//EN"
 "http://www.w3.org/TR/2001/REC-SVG-20010904/DTD/svg10.dtd">
<svg version="1.0" xmlns="http://www.w3.org/2000/svg"
 width="960.000000pt" height="1280.000000pt" viewBox="0 0 960.000000 1280.000000"
 preserveAspectRatio="xMidYMid meet">
<metadata>
Created by potrace 1.15, written by Peter Selinger 2001-2017
</metadata>
<g transform="translate(0.000000,1280.000000) scale(0.100000,-0.100000)"
fill="#000000" stroke="none">
<path d="M6085 9804 c-56 -15 -155 -49 -190 -66 -216 -107 -415 -408 -416
-628 0 -51 -3 -70 -9 -59 -5 9 -23 22 -40 29 -25 10 -30 18 -30 46 0 30 -5 35
-44 53 -32 14 -45 26 -48 43 -4 31 -55 36 -111 10 -90 -41 -88 -41 -145 -14
-79 36 -165 40 -222 10 -29 -15 -52 -36 -65 -60 -17 -33 -18 -44 -8 -124 l11
-89 90 -85 c49 -47 125 -130 168 -185 43 -55 140 -161 216 -236 76 -75 138
-143 138 -151 0 -22 -82 -131 -116 -155 -16 -11 -83 -48 -149 -81 -175 -88
-225 -150 -227 -282 -1 -70 18 -108 90 -182 l55 -57 -18 -135 c-28 -211 -15
-286 93 -522 28 -61 54 -123 57 -137 4 -14 1 -67 -5 -117 l-13 -90 -31 4 c-17
3 -89 15 -161 27 -271 45 -627 0 -836 -106 -72 -37 -131 -95 -165 -162 -24
-50 -29 -70 -29 -138 0 -71 4 -88 36 -155 l36 -76 -42 -48 c-24 -26 -66 -94
-95 -149 -72 -139 -114 -202 -275 -417 -153 -204 -221 -306 -366 -546 -139
-232 -163 -266 -177 -252 -14 14 -7 20 -73 -72 -82 -114 -259 -317 -341 -391
-60 -54 -82 -83 -122 -160 -27 -52 -89 -152 -136 -224 -48 -71 -97 -148 -108
-170 -11 -22 -35 -53 -52 -70 -48 -46 -83 -121 -83 -178 0 -27 6 -54 12 -60 6
-6 11 -33 11 -60 0 -44 4 -52 51 -103 59 -62 79 -66 154 -34 35 15 45 24 41
36 -4 12 -1 14 14 9 15 -5 30 3 54 27 19 19 38 32 43 31 5 -2 28 17 52 41 38
38 42 46 32 65 -12 21 2 31 14 11 11 -18 28 -10 66 31 31 33 36 45 29 60 -8
15 2 31 55 91 85 95 161 157 186 151 24 -7 80 36 109 83 32 51 23 122 -25 210
-34 62 -35 67 -18 80 10 7 22 14 27 14 4 0 42 34 84 76 42 41 103 91 136 110
34 20 78 52 98 72 34 32 36 37 23 52 -14 16 -9 24 62 92 43 41 129 122 192
179 180 164 305 342 446 633 40 83 82 153 114 191 29 33 55 61 59 62 15 5 173
-460 202 -591 l21 -99 -21 -19 c-11 -10 -20 -20 -20 -22 0 -2 18 -82 41 -177
51 -217 60 -366 35 -600 -8 -85 -17 -179 -19 -210 -2 -39 -11 -66 -28 -90 -39
-54 -64 -179 -39 -194 5 -3 6 -15 1 -28 -23 -62 37 -158 111 -178 41 -11 63
-9 173 14 52 10 68 20 123 72 67 63 102 118 102 158 0 14 6 30 14 36 21 18 38
98 37 179 -1 41 6 102 14 138 16 68 59 164 74 164 27 0 41 126 19 177 -15 35
-68 93 -85 93 -7 0 -17 8 -22 19 -6 10 -24 24 -40 31 -33 13 -32 11 -58 125
-12 52 -19 130 -21 225 -1 80 -4 186 -7 235 -23 417 -37 527 -89 671 -14 39
-26 74 -26 77 0 3 17 9 38 13 20 3 107 21 192 39 243 52 232 52 428 5 275 -65
388 -70 527 -21 162 57 315 226 360 396 34 133 15 240 -76 422 -75 152 -117
216 -205 318 -73 85 -124 180 -132 250 -4 36 1 47 37 92 22 28 85 87 139 132
55 44 122 105 149 137 l50 56 17 -88 c10 -49 28 -127 41 -174 35 -130 45 -183
56 -317 8 -108 16 -141 59 -266 69 -195 86 -261 109 -412 36 -240 36 -247 7
-282 -30 -36 -33 -69 -8 -99 25 -31 58 -46 100 -44 20 1 53 2 73 1 l36 -1 -5
-72 c-2 -40 -13 -100 -23 -133 -16 -53 -17 -62 -4 -75 13 -13 17 -12 34 5 25
25 71 148 71 189 0 17 5 38 10 46 19 29 31 -11 27 -90 -3 -52 -11 -88 -26
-118 -23 -45 -22 -72 3 -72 15 0 66 55 66 70 0 17 21 63 26 57 3 -2 -2 -22
-10 -42 -20 -47 -20 -64 0 -72 9 -3 21 3 30 16 8 11 21 21 29 21 20 0 24 10
34 86 8 54 7 84 -6 139 -21 93 -36 116 -105 161 -62 40 -99 82 -113 124 -5 14
-9 142 -10 285 -1 281 -12 377 -65 620 -16 72 -34 181 -40 244 -6 62 -18 148
-26 190 -9 42 -19 146 -23 231 -9 167 -20 213 -87 359 -28 61 -49 88 -122 157
-109 103 -146 165 -140 234 9 90 101 234 195 306 68 52 125 64 363 75 432 20
576 59 632 170 55 107 -28 285 -222 479 -266 265 -642 431 -1007 445 -65 2
-127 2 -138 -1z m-612 -825 c-4 -20 -9 -25 -24 -22 -18 5 -18 6 3 28 27 28 28
28 21 -6z m5 -155 c1 -50 -1 -75 -8 -72 -6 2 -42 28 -80 58 -79 61 -77 70 13
70 31 0 57 5 57 10 0 6 3 10 8 10 4 0 8 -34 10 -76z"/>
</g>
</svg>
